<svg xmlns="http://www.w3.org/2000/svg" viewBox="0 0 800 800">
  <defs>
    <linearGradient id="ray" x1="0%" y1="0%" x2="0%" y2="100%">
      <stop offset="0%" stop-color="#c807af44" />
      <stop offset="100%" stop-color="#c807af99" />
    </linearGradient>
  </defs>
  <g transform="translate(400 400)" fill="url(#ray)" opacity="0.55">
    <polygon points="0,0 32,-420 -32,-420" transform="rotate(0)" />
    <polygon points="0,0 32,-420 -32,-420" transform="rotate(15)" />
    <polygon points="0,0 32,-420 -32,-420" transform="rotate(30)" />
    <polygon points="0,0 32,-420 -32,-420" transform="rotate(45)" />
    <polygon points="0,0 32,-420 -32,-420" transform="rotate(60)" />
    <polygon points="0,0 32,-420 -32,-420" transform="rotate(75)" />
    <polygon points="0,0 32,-420 -32,-420" transform="rotate(90)" />
    <polygon points="0,0 32,-420 -32,-420" transform="rotate(105)" />
    <polygon points="0,0 32,-420 -32,-420" transform="rotate(120)" />
    <polygon points="0,0 32,-420 -32,-420" transform="rotate(135)" />
    <polygon points="0,0 32,-420 -32,-420" transform="rotate(150)" />
    <polygon points="0,0 32,-420 -32,-420" transform="rotate(165)" />
    <polygon points="0,0 32,-420 -32,-420" transform="rotate(180)" />
    <polygon points="0,0 32,-420 -32,-420" transform="rotate(195)" />
    <polygon points="0,0 32,-420 -32,-420" transform="rotate(210)" />
    <polygon points="0,0 32,-420 -32,-420" transform="rotate(225)" />
    <polygon points="0,0 32,-420 -32,-420" transform="rotate(240)" />
    <polygon points="0,0 32,-420 -32,-420" transform="rotate(255)" />
    <polygon points="0,0 32,-420 -32,-420" transform="rotate(270)" />
    <polygon points="0,0 32,-420 -32,-420" transform="rotate(285)" />
    <polygon points="0,0 32,-420 -32,-420" transform="rotate(300)" />
    <polygon points="0,0 32,-420 -32,-420" transform="rotate(315)" />
    <polygon points="0,0 32,-420 -32,-420" transform="rotate(330)" />
    <polygon points="0,0 32,-420 -32,-420" transform="rotate(345)" />
  </g>
</svg>
